# AST/ASF file generated using VICON BodyLanguage
# -----------------------------------------------
:version 1.10
:name VICON
:units
  mass 1.0
  length 0.45
  angle deg
:documentation
   .ast/.asf automatically generated from VICON data using
   VICON BodyBuilder and BodyLanguage model FoxedUp or BRILLIANT.MOD
:root
   order TX TY TZ RX RY RZ
   axis XYZ
   position 0 0 0  
   orientation 0 0 0 
:bonedata
  begin
     id 1 
     name lhipjoint
     direction 0.692814 -0.645514 0.321437 
     length 2.38754 
     axis 0 0 0  XYZ
  end
  begin
     id 2 
     name lfemur
     direction 0.34202 -0.939693 0  
     length 6.41921  
     axis 0 0 20  XYZ
    dof rx ry rz
    limits (-160.0 20.0)
           (-70.0 70.0)
           (-60.0 70.0)
  end
  begin
     id 3 
     name ltibia
     direction 0.34202 -0.939693 0   
     length 6.98247   
     axis 0 0 20   XYZ
    dof rx
    limits (-10.0 170.0)
  end
  begin
     id 4 
     name lfoot
     direction 0.0947186 -0.260237 0.960888   
     length 1.83034   
     axis -90 7.62852e-016 20   XYZ
    dof rx rz
    limits (-45.0 90.0)
           (-70.0 20.0)
  end
  begin
     id 5 
     name ltoes
     direction 1.53538e-011 -4.21952e-011 1   
     length 0.920499   
     axis -90 7.62852e-016 20   XYZ
    dof rx
    limits (-90.0 20.0)
  end
  begin
     id 6 
     name rhipjoint
     direction -0.631686 -0.693949 0.345555   
     length 2.2209  
     axis 0 0 0  XYZ 
  end
  begin
     id 7 
     name rfemur
     direction -0.34202 -0.939693 0   
     length 6.49542   
     axis 0 0 -20   XYZ
    dof rx ry rz
    limits (-160.0 20.0)
           (-70.0 70.0)
           (-70.0 60.0)
  end
  begin
     id 8 
     name rtibia
     direction -0.34202 -0.939693 0   
     length 7.21712   
     axis 0 0 -20   XYZ
    dof rx
    limits (-10.0 170.0)
 end
 begin
     id 9 
     name rfoot
     direction -0.0825378 -0.226771 0.970444   
     length 1.89724  
     axis -90 -7.62852e-016 -20   XYZ
    dof rx rz
    limits (-45.0 90.0)
           (-20.0 70.0)
  end
  begin
     id 10 
     name rtoes
     direction -1.53515e-011 -4.22016e-011 1   
     length 0.955868   
     axis -90 -7.62852e-016 -20   XYZ
    dof rx
    limits (-90.0 20.0)
  end
  begin
     id 11 
     name lowerback
     direction -0.0104711 0.984802 -0.173368   
     length 1.84931   
     axis 0 0 0   XYZ
    dof rx ry rz
    limits (-20.0 45.0)
           (-30.0 30.0)
           (-30.0 30.0)
  end
  begin
     id 12 
     name upperback
     direction -0.00286433 0.999996 -0.000382853   
     length 1.85768   
     axis 0 0 0   XYZ
    dof rx ry rz
    limits (-20.0 45.0)
           (-30.0 30.0)
           (-30.0 30.0)
  end
  begin
     id 13 
     name thorax
     direction 0.00167534 0.996793 0.0800069   
     length 1.92   
     axis 0 0 0   XYZ
    dof rx ry rz
    limits (-20.0 45.0)
           (-30.0 30.0)
           (-30.0 30.0)
  end
  begin
     id 14 
     name lowerneck
     direction -0.0672491 0.995415 0.068018   
     length 1.58923   
     axis 0 0 0   XYZ
    dof rx ry rz
    limits (-20.0 45.0)
           (-30.0 30.0)
           (-30.0 30.0)
  end
  begin
     id 15 
     name upperneck
     direction 0.0958019 0.982476 -0.159884   
     length 1.60189   
     axis 0 0 0   XYZ
    dof rx ry rz
    limits (-20.0 45.0)
           (-30.0 30.0)
           (-30.0 30.0)
  end
  begin
     id 16
     name head
     direction 0.032989 0.997338 -0.0650226  
     length 1.61681  
     axis 0 0 0   XYZ
    dof rx ry rz
    limits (-20.0 45.0)
           (-30.0 30.0)
           (-30.0 30.0)
  end
  begin
     id 17 
     name lclavicle
     direction 0.954279 0.298875 -0.00496069  
     length 2.99449  
     axis 0 0 0   XYZ
    dof ry rz
    limits (-20.0 10.0)
           (0.0 20.0)
  end
  begin
     id 18 
     name lhumerus
     direction 1 -4.48985e-011 -4.2057e-027   
     length 4.79185   
     axis 180 -30 -90   XYZ
    dof rx ry rz
    limits (-60.0 90.0)
           (-90.0 90.0)
           (-90.0 90.0)
  end
  begin
     id 19
     name lradius
     direction 1 -4.48945e-011 1.15441e-028   
     length 2.65553   
     axis 180 -30 -90   XYZ
    dof rx
    limits (-10.0 170.0)
  end
  begin
     id 20
     name lwrist
     direction 1 -4.4899e-011 4.8894e-028   
     length 1.32777   
     axis -2.56392e-016 90 90   XYZ
    dof ry
    limits (-180.0 0.0)
 end
  begin
     id 21 
     name lhand
     direction 1 -4.48908e-011 9.7788e-028   
     length 0.743904   
     axis -6.23971e-016 90 90   XYZ
    dof rx rz
    limits (-90.0 90.0)
           (-45.0 45.0)
  end
  begin
     id 22 
     name lfingers
     direction 1 -4.49068e-011 1.95576e-027   
     length 0.599754   
     axis -1.24794e-015 90 90   XYZ
    dof rx
    limits (0.0 90.0)
  end
  begin
     id 23
     name lthumb
     direction 0.707107 -6.34883e-011 0.707107   
     length 0.861131   
     axis -90 45 2.85299e-015   XYZ
    dof rx rz
    limits (-45.0 45.0)
           (-45.0 45.0)
  end
  begin
     id 24 
     name rclavicle
     direction -0.957921 0.286916 0.00811568   
     length 3.06817  
     axis 0 0 0   XYZ 
    dof ry rz
    limits (-10.0 20.0)
           (-20.0 0.0)
  end
  begin
     id 25 
     name rhumerus
     direction -1 -4.48971e-011 -3.07942e-027  
     length 4.77254   
     axis 180 30 90   XYZ
    dof rx ry rz
    limits (-90.0 60.0)
           (-90.0 90.0)
           (-90.0 90.0)
  end
  begin
     id 26 
     name rradius
     direction -1 -4.48957e-011 -9.6815e-028   
     length 2.75995   
     axis 180 30 90   XYZ
    dof rx
    limits (-10.0 170.0)
  end
  begin
     id 27 
     name rwrist
     direction -1 -4.48979e-011 4.8894e-028   
     length 1.37997   
     axis -2.56392e-016 -90 -90   XYZ
    dof ry
    limits (-180.0 0.0)
  end
  begin
     id 28
     name rhand
     direction -1 -4.48906e-011 9.7788e-028   
     length 0.701619   
     axis -6.23971e-016 -90 -90   XYZ
    dof rx rz
    limits (-90.0 90.0)
           (-45.0 45.0)
  end
  begin
     id 29
     name rfingers
     direction -1 -4.49018e-011 1.95576e-027   
     length 0.565663   
     axis -1.24794e-015 -90 -90   XYZ
    dof rx
    limits (0.0 90.0)
  end
  begin
     id 30
     name rthumb
     direction -0.707107 -6.34881e-011 0.707107   
     length 0.812183   
     axis -90 -45 -2.85299e-015   XYZ
    dof rx rz
    limits (-45.0 45.0)
           (-45.0 45.0)
  end
:hierarchy
  begin
    root lhipjoint rhipjoint lowerback
    lhipjoint lfemur
    lfemur ltibia
    ltibia lfoot
    lfoot ltoes
    rhipjoint rfemur
    rfemur rtibia
    rtibia rfoot
    rfoot rtoes
    lowerback upperback
    upperback thorax
    thorax lowerneck lclavicle rclavicle
    lowerneck upperneck
    upperneck head
    lclavicle lhumerus
    lhumerus lradius
    lradius lwrist
    lwrist lhand lthumb
    lhand lfingers
    rclavicle rhumerus
    rhumerus rradius
    rradius rwrist
    rwrist rhand rthumb
    rhand rfingers
  end

#!OML:ASF F:\VICON\USERDATA\INSTALL\rory3\rory3.ASF
:FULLY-SPECIFIED
:DEGREES
780
root 0.387797 15.9743 -0.240819 -0.996571 -4.5756 -0.187425
lowerback 12.1508 0.443579 -2.4912
upperback -0.942779 0.135546 -1.11342
thorax -7.84136 0.144781 0.19986
lowerneck -15.756 -8.50787 -11.2432
upperneck 24.063 -11.5481 9.16913
head 11.6884 -5.22192 3.46426
rclavicle 5.11871e-015 2.38542e-015
rhumerus 23.3046 35.7353 -49.9135
rradius 98.5585
rwrist 6.39101
rhand -5.21244 14.5462
rfingers 7.12502
rthumb 20.5893 -14.3819
lclavicle 5.11871e-015 2.38542e-015
lhumerus -30.1693 -36.6932 100.844
lradius 26.3185
lwrist -5.1538
lhand -6.82549 14.026
lfingers 7.12502
lthumb 19.0387 43.1142
rfemur -5.91801 13.0809 16.6648
rtibia 24.1535
rfoot -13.1725 -10.4737
rtoes -11.3302
lfemur -1.24104 -10.014 -18.1381
ltibia 18.4005
lfoot -12.5501 10.7684
ltoes -11.4701
781
root 0.387257 15.9745 -0.242088 -1.01559 -4.47792 -0.337023
lowerback 12.3049 0.38787 -2.39158
upperback -1.01275 0.074433 -1.04724
thorax -8.00303 0.11425 0.224027
lowerneck -15.7628 -8.53923 -11.2589
upperneck 24.2323 -11.594 9.1272
head 11.7585 -5.24748 3.44473
rclavicle -1.44119e-015 -1.59028e-014
rhumerus 24.9144 33.3966 -49.3863
rradius 98.565
rwrist 7.38352
rhand -5.5218 14.8411
rfingers 7.12502
rthumb 20.292 -14.1188
lclavicle -1.44119e-015 -1.59028e-014
lhumerus -31.0985 -37.1643 101.516
lradius 26.3006
lwrist -4.75186
lhand -6.54952 13.9999
lfingers 7.12502
lthumb 19.304 43.0617
rfemur -5.79363 13.0622 16.8468
rtibia 24.023
rfoot -13.1454 -10.5351
rtoes -11.4269
lfemur -1.29515 -10.0432 -17.9714
ltibia 18.5441
lfoot -12.5843 10.6325
ltoes -11.345
782
root 0.386069 15.974 -0.243776 -1.0619 -4.38259 -0.524687
lowerback 12.2914 0.341964 -2.13927
upperback -0.917289 0.0541328 -1.03937
thorax -7.8912 0.0923697 0.0946602
lowerneck -15.9366 -8.62247 -11.2096
upperneck 24.3378 -11.7103 9.09519
head 11.8422 -5.2919 3.39946
rclavicle -4.72114e-016 2.78299e-015
rhumerus 26.5562 30.8687 -49.0284
rradius 98.5181
rwrist 8.32388
rhand -5.89221 14.7431
rfingers 7.12502
rthumb 19.936 -14.2543
lclavicle -4.72114e-016 2.78299e-015
lhumerus -31.7009 -37.8172 101.975
lradius 26.2638
lwrist -4.28295
lhand -6.27928 13.9424
lfingers 7.12502
lthumb 19.5639 42.9781
rfemur -5.65546 13.0735 17.0849
rtibia 23.926
rfoot -13.0711 -10.6365
rtoes -11.5139
lfemur -1.31804 -10.0877 -17.7667
ltibia 18.694
lfoot -12.6417 10.5787
ltoes -11.4014
783
root 0.385966 15.9742 -0.245465 -1.08115 -4.28934 -0.638088
lowerback 12.2754 0.264859 -1.93087
upperback -0.859034 -0.0154635 -1.0343
thorax -7.8178 0.0491545 -0.00395108
lowerneck -16.0442 -8.66152 -11.2425
upperneck 24.4158 -11.7516 9.08826
head 11.9008 -5.30984 3.39202
rclavicle -6.55989e-015 -3.97569e-016
rhumerus 28.2511 28.5496 -48.7332
rradius 98.4856
rwrist 9.07039
rhand -6.09233 14.235
rfingers 7.12502
rthumb 19.7436 -14.7823
lclavicle -6.55989e-015 -3.97569e-016
lhumerus -32.3182 -38.36 102.442
lradius 26.2996
lwrist -3.81533
lhand -5.8867 14.1386
lfingers 7.12502
lthumb 19.9413 43.1355
rfemur -5.59312 13.0372 17.2208
rtibia 23.8916
rfoot -12.9794 -10.7145
rtoes -11.9159
lfemur -1.36394 -10.1343 -17.6456
ltibia 18.7973
lfoot -12.6734 10.5627
ltoes -11.4817
784
root 0.386979 15.9736 -0.247616 -1.06155 -4.15246 -0.563783
lowerback 12.3373 0.225313 -1.95132
upperback -0.904599 -0.0771366 -1.0758
thorax -7.90134 0.0198629 -0.0253464
lowerneck -16.0245 -8.69435 -11.1997
upperneck 24.507 -11.8096 9.04243
head 11.9329 -5.33727 3.35913
rclavicle 3.47873e-016 -5.56597e-015
rhumerus 29.6799 26.3289 -48.5934
rradius 98.4349
rwrist 9.64033
rhand -6.41633 13.9506
rfingers 7.12502
rthumb 19.4321 -15.0984
lclavicle 3.47873e-016 -5.56597e-015
lhumerus -33.2602 -39.2934 103.219
lradius 26.4934
lwrist -2.86019
lhand -5.6111 14.4362
lfingers 7.12502
lthumb 20.2062 43.4053
rfemur -5.61068 12.9568 17.1252
rtibia 23.8981
rfoot -12.9629 -10.751
rtoes -12.1537
lfemur -1.44794 -10.1544 -17.7268
ltibia 18.8381
lfoot -12.6082 10.5517
ltoes -11.7279
785
root 0.389082 15.9741 -0.250694 -0.985594 -3.97529 -0.337249
lowerback 12.3809 0.249394 -2.10286
upperback -0.995431 -0.0808585 -1.19833
thorax -8.02445 0.0228871 -0.07008
lowerneck -15.925 -8.7784 -11.0626
upperneck 24.5439 -11.9754 9.00898
head 11.935 -5.40592 3.29841
rclavicle -3.40419e-015 1.59028e-015
rhumerus 30.8536 24.0832 -48.6473
rradius 98.169
rwrist 10.289
rhand -7.10555 13.9904
rfingers 7.12502
rthumb 18.7693 -15.1241
lclavicle -3.40419e-015 1.59028e-015
lhumerus -34.4531 -40.6088 104.187
lradius 26.8907
lwrist -1.59753
lhand -5.50881 14.6839
lfingers 7.12502
lthumb 20.3045 43.6425
rfemur -5.71278 12.8407 16.8396
rtibia 23.9224
rfoot -12.9488 -10.8094
rtoes -12.1093
lfemur -1.59616 -10.2089 -17.9694
ltibia 18.8237
lfoot -12.501 10.5537
ltoes -12.12
786
root 0.392036 15.9757 -0.252608 -0.940259 -3.80396 -0.264018
lowerback 12.4239 0.228595 -2.08546
upperback -1.04771 -0.113472 -1.26012
thorax -8.10515 0.00561148 -0.139904
lowerneck -15.9072 -8.84109 -10.916
upperneck 24.5997 -12.0827 8.89849
head 11.947 -5.45352 3.21515
rclavicle -1.54058e-014 7.15625e-015
rhumerus 32.1677 22.0183 -48.7644
rradius 97.7183
rwrist 11.0143
rhand -7.6478 14.0873
rfingers 7.12502
rthumb 18.2477 -15.0768
lclavicle -1.54058e-014 7.15625e-015
lhumerus -35.3833 -41.3965 104.893
lradius 27.2069
lwrist -0.725886
lhand -5.28886 14.8181
lfingers 7.12502
lthumb 20.5159 43.7542
rfemur -5.76191 12.7546 16.7312
rtibia 23.9509
rfoot -12.9557 -10.8569
rtoes -11.7613
lfemur -1.6816 -10.3125 -18.0555
ltibia 18.7724
lfoot -12.4252 10.5955
ltoes -12.3555
